# xmcd
#
# Track frame offsets: 
#        150
#        15230
#        27232
#        49376
#        60361
#        78185
#        92966
#        107692
#        124087
#        139918
#        161629
#        177326
#
# Disc length: 2576 seconds
#
# Revision: 1
# Processed by: cddbd v1.5.2PL0 Copyright (c) Steve Scherf et al.
# Submitted via: ExactAudioCopy v0.99pb5
#
DISCID=950a0e0c
DTITLE=Memphis Slim - I fell so good
DYEAR=1900
DGENRE=Blues
TTITLE0=Worried life blue
TTITLE1=I don't want my rooster crowin' after the sun goes down
TTITLE2=Lonesome in my bedroom
TTITLE3=Diggin' my potatoes
TTITLE4=In the evenin'
TTITLE5=Í feel so good
TTITLE6=Rockin' chair blues
TTITLE7=Baby gone
TTITLE8=Cow cow blues
TTITLE9=Miss Ida B.
TTITLE10=Fourty-four blues
TTITLE11=Trouble in mind
EXTD=
EXTT0=
EXTT1=
EXTT2=
EXTT3=
EXTT4=
EXTT5=
EXTT6=
EXTT7=
EXTT8=
EXTT9=
EXTT10=
EXTT11=
PLAYORDER=
